HIERARCHY
ROOT Pelvis
{
	OFFSET 0.000000 0.000000 0.000000
	CHANNELS 6 Xposition Yposition Zposition Xrotation Yrotation Zrotation
	JOINT LeftUpLeg_virtual
	{
		OFFSET 0.000000 0.000000 0.000000
		CHANNELS 3 Xrotation Yrotation Zrotation
		JOINT LeftUpLeg
		{
			OFFSET 18.735201 -5.666702 -4.541200
			CHANNELS 3 Xrotation Yrotation Zrotation
			JOINT LeftLeg
			{
				OFFSET -0.021200 -31.938179 0.493100
				CHANNELS 3 Xrotation Yrotation Zrotation
				JOINT LeftFoot
				{
					OFFSET 0.021200 -31.938179 -4.336299
					CHANNELS 3 Xrotation Yrotation Zrotation
					JOINT LeftToeBase
					{
						OFFSET 0.943001 -26.722000 15.023500
						CHANNELS 3 Xrotation Yrotation Zrotation
						End Site
						{
							OFFSET 0 0 0
						}
					}
				}
			}
		}
	}
	JOINT RightUpLeg_virtual
	{
		OFFSET 0.000000 0.000000 0.000000
		CHANNELS 3 Xrotation Yrotation Zrotation
		JOINT RightUpLeg
		{
			OFFSET -18.735201 -5.666702 -4.541200
			CHANNELS 3 Xrotation Yrotation Zrotation
			JOINT RightLeg
			{
				OFFSET 0.018946 -31.938133 0.493100
				CHANNELS 3 Xrotation Yrotation Zrotation
				JOINT RightFoot
				{
					OFFSET -0.018946 -31.938126 -4.336299
					CHANNELS 3 Xrotation Yrotation Zrotation
					JOINT RightToeBase
					{
						OFFSET -0.943001 -26.722004 15.023500
						CHANNELS 3 Xrotation Yrotation Zrotation
						End Site
						{
							OFFSET 0 0 0
						}
					}
				}
			}
		}
	}
	JOINT Hips_virtual
	{
		OFFSET 0.000000 0.000000 0.000000
		CHANNELS 3 Xrotation Yrotation Zrotation
		JOINT Hips
		{
			OFFSET -0.000000 -0.000000 -0.000000
			CHANNELS 3 Xrotation Yrotation Zrotation
			JOINT Spine
			{
				OFFSET 0.000000 10.199997 -0.299500
				CHANNELS 3 Xrotation Yrotation Zrotation
				JOINT Spine1
				{
					OFFSET 0.000000 11.900002 -1.516600
					CHANNELS 3 Xrotation Yrotation Zrotation
					JOINT Spine2
					{
						OFFSET 0.000000 13.600006 -2.842500
						CHANNELS 3 Xrotation Yrotation Zrotation
						JOINT Neck_virtual
						{
							OFFSET 0.000000 0.000000 0.000000
							CHANNELS 3 Xrotation Yrotation Zrotation
							JOINT Neck
							{
								OFFSET 0.000000 9.624100 -2.890100
								CHANNELS 3 Xrotation Yrotation Zrotation
								JOINT Head
								{
									OFFSET 0.000000 14.068802 -1.351900
									CHANNELS 3 Xrotation Yrotation Zrotation
									End Site
									{
										OFFSET 0 0 0
									}
								}
							}
						}
						JOINT LeftShoulder_virtual
						{
							OFFSET 0.000000 0.000000 0.000000
							CHANNELS 3 Xrotation Yrotation Zrotation
							JOINT LeftShoulder
							{
								OFFSET 15.263000 10.923401 -0.547700
								CHANNELS 3 Xrotation Yrotation Zrotation
								JOINT LeftArm
								{
									OFFSET 25.438599 -2.830597 -13.032500
									CHANNELS 3 Xrotation Yrotation Zrotation
									JOINT LeftForeArm
									{
										OFFSET 29.960503 0.000000 0.000000
										CHANNELS 3 Xrotation Yrotation Zrotation
										JOINT LeftHand
										{
											OFFSET 27.849251 0.000000 0.000000
											CHANNELS 3 Xrotation Yrotation Zrotation
											End Site
											{
												OFFSET 0 0 0
											}
										}
									}
								}
							}
						}
						JOINT RightShoulder_virtual
						{
							OFFSET 0.000000 0.000000 0.000000
							CHANNELS 3 Xrotation Yrotation Zrotation
							JOINT RightShoulder
							{
								OFFSET -15.263000 10.923401 -0.547700
								CHANNELS 3 Xrotation Yrotation Zrotation
								JOINT RightArm
								{
									OFFSET -25.438599 -2.830597 -13.032500
									CHANNELS 3 Xrotation Yrotation Zrotation
									JOINT RightForeArm
									{
										OFFSET -29.960503 0.000000 0.000000
										CHANNELS 3 Xrotation Yrotation Zrotation
										JOINT RightHand
										{
											OFFSET -27.849251 0.000000 0.000000
											CHANNELS 3 Xrotation Yrotation Zrotation
											End Site
											{
												OFFSET 0 0 0
											}
										}
									}
								}
							}
						}
					}
				}
			}
		}
	}
}
MOTION
Frames: 12
Frame Time: 0.03333333
-6.240513 83.935532 7.867466 0.000000 0.000000 0.000000 -15.022977 -11.400047 -1.933364 -24.717570 1.479735 19.322180 59.555117 -9.834811 0.190517 -18.084097 -0.060558 -12.929693 0.000000 0.000000 0.000000 -15.320181 -10.632653 -1.532751 -14.523801 -3.156354 -21.853311 58.707498 -2.898016 7.063250 -37.047817 7.134793 12.037430 0.000000 0.000000 0.000000 -14.603808 -10.552367 -1.263347 -0.813187 -0.004717 -0.043025 15.104743 2.770069 2.542328 6.228068 2.003940 1.922233 0.000000 0.000000 0.000000 8.247808 4.098308 1.575461 -6.772823 -2.805404 2.906549 0.000000 0.000000 0.000000 6.945350 3.166460 1.048363 -0.299667 -6.124008 6.735063 -14.460610 -31.077217 -86.604736 57.862269 -63.280781 66.662954 0.000000 0.000000 0.000000 7.129367 5.312323 1.066432 19.013239 -10.531406 12.945473 -30.802763 25.184986 65.698927 66.688628 40.061672 -69.537193 0.000000 0.000000 0.000000 
-6.118781 83.866730 7.961746 0.000000 0.000000 0.000000 -15.049041 -11.071593 -1.918922 -24.676992 1.652119 19.178304 59.524798 -9.591446 0.065914 -18.499439 0.198537 -12.685894 0.000000 0.000000 0.000000 -15.365865 -10.224009 -1.578727 -14.162113 -3.129186 -21.810823 58.459077 -3.043054 7.046730 -37.712370 7.094953 11.778491 0.000000 0.000000 0.000000 -14.721675 -10.169747 -1.343587 -0.819452 0.021206 -0.058053 15.519699 2.712408 2.377969 6.156696 1.775595 1.890816 0.000000 0.000000 0.000000 8.208978 3.904023 1.521668 -6.562599 -2.700462 2.792428 0.000000 0.000000 0.000000 6.903347 3.083981 1.182232 -0.252370 -5.870246 6.387292 -13.412314 -30.748894 -85.428741 57.753389 -63.845371 66.119161 0.000000 0.000000 0.000000 6.788084 5.159481 1.201210 18.917432 -9.869949 13.024262 -32.111632 24.513242 67.653898 67.164078 40.259990 -70.242027 0.000000 0.000000 0.000000 
-6.027236 83.749069 8.201683 0.000000 0.000000 0.000000 -15.165009 -10.418413 -1.920357 -24.457605 1.746053 19.019514 59.478366 -9.609507 -0.032448 -19.678065 0.350245 -13.028949 0.000000 0.000000 0.000000 -15.532707 -9.467590 -1.648701 -13.645255 -3.319092 -21.931101 58.586528 -3.020989 7.100689 -38.474500 7.138593 11.766308 0.000000 0.000000 0.000000 -15.084275 -9.541629 -1.494849 -0.819638 0.024293 -0.057895 16.105992 2.518624 2.000101 6.167587 1.290195 1.936030 0.000000 0.000000 0.000000 7.966191 3.512731 1.627140 -6.292718 -2.666284 2.719990 0.000000 0.000000 0.000000 6.881706 2.784384 1.518301 0.002020 -6.192440 6.748998 -12.242579 -30.152847 -83.026912 55.760049 -64.643847 63.417227 0.000000 0.000000 0.000000 6.436302 4.687806 1.335734 18.695514 -9.578229 12.835172 -33.091505 23.824060 68.728423 67.098863 40.342079 -70.341004 0.000000 0.000000 0.000000 
-6.028816 83.653145 8.540051 0.000000 0.000000 0.000000 -15.386335 -9.668587 -1.925628 -24.035579 1.647593 18.864873 59.410181 -9.822605 -0.117348 -21.108570 0.389954 -13.696419 0.000000 0.000000 0.000000 -15.808314 -8.645627 -1.703378 -13.122118 -3.674442 -22.154683 59.015150 -2.862022 7.150073 -38.838477 7.297121 12.032376 0.000000 0.000000 0.000000 -15.612163 -8.874642 -1.665841 -0.812176 0.006820 -0.036993 16.776070 2.209046 1.601784 6.242281 0.516309 2.045686 0.000000 0.000000 0.000000 7.579101 2.855792 1.785138 -5.966784 -2.710506 2.702346 0.000000 0.000000 0.000000 6.937123 2.242757 1.887989 0.360314 -6.863307 7.645160 -10.713845 -29.481361 -79.124839 52.645121 -65.543834 59.295481 0.000000 0.000000 0.000000 6.198443 3.906275 1.386225 18.319049 -9.741006 11.794068 -32.646026 23.563118 67.917011 67.037487 40.303976 -70.103149 0.000000 0.000000 0.000000 
-6.105465 83.651474 8.898609 0.000000 0.000000 0.000000 -15.703949 -9.110351 -1.922295 -23.448601 1.394868 18.719161 59.296465 -10.081165 -0.216510 -22.139804 0.349606 -14.334569 0.000000 0.000000 0.000000 -16.116465 -7.969593 -1.698710 -12.627497 -4.102355 -22.418303 59.406950 -2.758823 7.169626 -38.936415 7.492929 12.254406 0.000000 0.000000 0.000000 -16.161840 -8.307169 -1.798130 -0.809489 -0.001987 -0.026375 17.356148 1.821559 1.274706 6.296086 -0.528235 2.121067 0.000000 0.000000 0.000000 7.127954 1.916466 1.882805 -5.553167 -2.799960 2.734158 0.000000 0.000000 0.000000 7.115319 1.447213 2.103247 0.759455 -7.389962 8.851944 -8.153730 -28.951806 -73.441192 49.942131 -66.837513 55.345323 0.000000 0.000000 0.000000 6.040945 2.852309 1.358782 17.826247 -10.055167 9.599693 -30.097290 24.204293 65.294013 66.642743 40.342048 -69.264272 0.000000 0.000000 0.000000 
-6.243530 83.811707 9.112846 0.000000 0.000000 0.000000 -16.017022 -8.895932 -1.895869 -22.822811 1.058884 18.535310 59.093035 -10.259364 -0.324906 -22.371680 0.258575 -14.615864 0.000000 0.000000 0.000000 -16.405711 -7.666287 -1.617074 -12.080336 -4.551752 -22.589669 59.487253 -2.901348 7.158028 -39.058495 7.614454 12.181829 0.000000 0.000000 0.000000 -16.572616 -7.843938 -1.827867 -0.815470 0.009968 -0.029290 17.712998 1.394141 1.084917 6.202575 -1.842906 2.155309 0.000000 0.000000 0.000000 6.644386 0.772808 1.873339 -5.021467 -2.919042 2.809022 0.000000 0.000000 0.000000 7.358115 0.411631 2.077408 1.104323 -7.475414 10.298112 -4.188082 -28.674152 -66.004633 48.733714 -68.770641 52.660496 0.000000 0.000000 0.000000 5.964084 1.667497 1.308613 17.252358 -10.242956 6.246351 -26.012209 25.468194 61.476217 65.543212 40.537241 -67.597037 0.000000 0.000000 0.000000 
-6.400805 84.090332 9.242924 0.000000 0.000000 0.000000 -16.256794 -9.003007 -1.829981 -22.220557 0.721372 18.267379 58.700982 -10.273399 -0.446647 -21.804016 0.194491 -14.384595 0.000000 0.000000 0.000000 -16.618455 -7.758883 -1.465967 -11.364435 -4.944781 -22.654397 59.021973 -3.242830 7.119835 -39.158031 7.672065 12.007944 0.000000 0.000000 0.000000 -16.792252 -7.644712 -1.739416 -0.831721 0.017643 -0.059871 17.924942 1.013607 0.937310 6.014353 -3.241953 2.196011 0.000000 0.000000 0.000000 6.341175 -0.475149 1.833801 -4.305066 -3.029794 2.858327 0.000000 0.000000 0.000000 7.657101 -0.751914 1.935016 1.385785 -7.009415 11.766768 0.909885 -28.504374 -56.988120 48.758774 -71.264759 51.032329 0.000000 0.000000 0.000000 5.929336 0.494122 1.299972 16.617133 -9.829238 2.215884 -21.627210 26.243475 56.328515 63.609579 40.955348 -64.908913 0.000000 0.000000 0.000000 
-6.542308 84.433014 9.279457 0.000000 0.000000 0.000000 -16.359188 -9.335230 -1.731560 -21.710605 0.500771 17.934596 58.002028 -10.158036 -0.585123 -20.822634 0.197667 -13.803881 0.000000 0.000000 0.000000 -16.676501 -8.079761 -1.295171 -10.736825 -5.209621 -22.714672 58.147292 -3.620996 7.066986 -38.960987 7.760841 12.047328 0.000000 0.000000 0.000000 -16.785021 -7.756715 -1.546227 -0.844710 0.005054 -0.104564 18.251365 0.779362 0.668997 5.830042 -4.505638 2.295143 0.000000 0.000000 0.000000 6.363978 -1.644911 1.898257 -3.368150 -3.101100 2.829940 0.000000 0.000000 0.000000 8.013295 -1.894107 1.876371 1.594924 -5.954074 13.273851 5.772595 -27.610510 -47.113207 49.484171 -74.140501 50.133496 0.000000 0.000000 0.000000 5.924049 -0.564325 1.439708 16.010023 -9.013555 -1.630349 -19.467511 25.399588 50.396971 61.839802 42.359710 -62.267583 0.000000 0.000000 0.000000 
-6.659853 84.706100 9.145588 0.000000 0.000000 0.000000 -16.294477 -9.630734 -1.616888 -21.423450 0.422126 17.576621 57.053260 -9.948790 -0.747117 -19.941880 0.297067 -13.073200 0.000000 0.000000 0.000000 -16.583390 -8.473660 -1.168386 -10.505674 -5.332071 -22.831878 57.261424 -3.868626 7.018758 -38.473055 7.906656 12.428389 0.000000 0.000000 0.000000 -16.592491 -8.028905 -1.301574 -0.861372 -0.011592 -0.115577 18.876496 0.825968 0.260899 5.833823 -5.435833 2.551344 0.000000 0.000000 0.000000 6.770341 -2.512613 2.149496 -2.238614 -3.142585 2.695809 0.000000 0.000000 0.000000 8.400334 -2.733645 2.018072 1.596939 -4.595639 14.749100 8.087091 -24.901763 -38.018892 51.863993 -77.573061 51.210658 0.000000 0.000000 0.000000 6.170806 -1.312600 1.749399 15.369790 -8.400930 -4.702639 -22.498073 23.323791 44.996989 61.593833 44.994797 -61.243212 0.000000 0.000000 0.000000 
-6.734229 84.772087 8.844593 0.000000 0.000000 0.000000 -16.044097 -9.722664 -1.511367 -21.602722 0.482548 17.246877 56.319366 -9.675431 -0.908396 -19.505651 0.508278 -12.305310 0.000000 0.000000 0.000000 -16.339841 -8.672027 -1.097906 -10.803064 -5.224232 -23.020342 56.815689 -3.864399 6.991441 -38.045609 8.087430 13.077087 0.000000 0.000000 0.000000 -16.291881 -8.298582 -1.118472 -0.874836 -0.022211 -0.086292 19.880119 1.145884 -0.269871 6.174742 -5.902224 2.977771 0.000000 0.000000 0.000000 7.639751 -2.920102 2.584246 -1.023699 -3.176699 2.445612 0.000000 0.000000 0.000000 8.861165 -3.130309 2.330242 1.379928 -3.215848 15.865346 5.347110 -19.966304 -31.545014 66.440515 -82.023906 65.087728 0.000000 0.000000 0.000000 6.651624 -1.672311 2.208261 14.557169 -8.394235 -6.559408 -32.248509 21.438547 42.222051 63.617359 48.665641 -62.772027 0.000000 0.000000 0.000000 
-6.737896 84.553734 8.400021 0.000000 0.000000 0.000000 -15.596535 -9.610007 -1.455415 -22.469775 0.628495 17.016030 56.347005 -9.377287 -1.061891 -19.631482 0.769342 -11.650373 0.000000 0.000000 0.000000 -15.950541 -8.579375 -1.083928 -11.680861 -4.859090 -23.232506 57.193364 -3.673461 7.027427 -38.308759 8.205233 13.753373 0.000000 0.000000 0.000000 -15.889735 -8.384175 -1.074539 -0.862827 -0.024301 -0.031704 21.176452 1.616915 -0.741069 6.905520 -5.964778 3.522127 0.000000 0.000000 0.000000 8.938365 -2.804508 3.044297 0.132903 -3.178141 2.129006 0.000000 0.000000 0.000000 9.433213 -3.071036 2.629950 0.935394 -2.216576 16.230968 -3.026492 -12.771636 -28.510692 130.446696 -83.464871 129.123702 0.000000 0.000000 0.000000 7.424129 -1.603448 2.690182 13.581873 -9.030842 -6.780621 -47.183575 19.658099 43.930687 69.206243 52.851457 -68.292446 0.000000 0.000000 0.000000 
-6.683194 84.031693 7.857784 0.000000 0.000000 0.000000 -14.938237 -9.338438 -1.441532 -24.123342 0.840965 16.936294 57.454861 -9.111120 -1.204695 -20.276197 0.979920 -11.161615 0.000000 0.000000 0.000000 -15.394654 -8.293136 -1.107761 -13.120408 -4.243330 -23.482129 58.514367 -3.313358 7.138505 -39.596598 8.191546 14.392486 0.000000 0.000000 0.000000 -15.363266 -8.304968 -1.160255 -0.837964 -0.015489 0.004387 22.476590 2.095952 -0.840675 8.045304 -5.711831 4.050052 0.000000 0.000000 0.000000 10.552501 -2.287491 3.374356 1.122176 -3.121915 1.763576 0.000000 0.000000 0.000000 10.235327 -2.663178 2.770276 0.392224 -1.974209 15.241451 -15.130160 -4.636236 -28.650024 167.626393 -75.498268 166.885099 0.000000 0.000000 0.000000 8.479601 -1.203318 3.075550 12.683752 -9.720762 -5.174697 -61.579039 17.278763 48.858443 78.217175 56.336568 -77.653500 0.000000 0.000000 0.000000 
